<svg width="24" height="24" viewBox="0 0 24 24" fill="none" xmlns="http://www.w3.org/2000/svg">
<path fill-rule="evenodd" clip-rule="evenodd" d="M20.5 6H7.58198L7.16573 4.47377C6.92843 3.60364 6.13811 3 5.2362 3H3C2.44772 3 2 3.44772 2 4C2 4.55228 2.44772 5 3 5H5.2362L7.79746 14.3913C8.06753 15.3815 9.04335 16.0066 10.0558 15.8378L20.3288 14.1257C21.2932 13.9649 22 13.1306 22 12.1529V7.5C22 6.67157 21.3284 6 20.5 6ZM7 21C8.10457 21 9 20.1046 9 19C9 17.8954 8.10457 17 7 17C5.89543 17 5 17.8954 5 19C5 20.1046 5.89543 21 7 21ZM17 21C18.1046 21 19 20.1046 19 19C19 17.8954 18.1046 17 17 17C15.8954 17 15 17.8954 15 19C15 20.1046 15.8954 21 17 21Z" fill="#376FFF"/>
</svg>
