<svg width="24" height="24" viewBox="0 0 24 24" fill="none" xmlns="http://www.w3.org/2000/svg">
<path d="M10.9688 18.7688C15.4951 18.1071 19.0007 14.4343 19.0007 9.93764C19.0007 9.28069 18.9259 8.64133 18.784 8.02637C20.719 9.17837 22.0007 11.1883 22.0007 13.4751C22.0007 14.7669 21.5917 15.9704 20.887 16.9807C20.9467 17.93 21.2838 18.7626 21.8984 19.4787L21.8984 19.4787C22.0531 19.6589 22.0324 19.9304 21.8522 20.085C21.7651 20.1598 21.6518 20.1966 21.5375 20.1874C20.1704 20.077 19.0525 19.7623 18.1838 19.2435C17.2289 19.6953 16.1469 19.9501 15.0007 19.9501C13.4994 19.9501 12.1086 19.513 10.9688 18.7688Z" fill="#376FFF"/>
<path d="M7.62507 16.6565C8.22433 16.7991 8.85259 16.875 9.5 16.875C13.6421 16.875 17 13.769 17 9.9375C17 6.10602 13.6421 3 9.5 3C5.35786 3 2 6.10602 2 9.9375C2 11.8838 2.8665 13.643 4.26215 14.9029C4.13972 15.7615 3.79132 16.5252 3.21696 17.1939C3.05141 17.3867 3.07346 17.6771 3.26619 17.8426C3.35931 17.9226 3.48053 17.9621 3.60289 17.9522C5.30334 17.8151 6.64406 17.3832 7.62507 16.6565Z" fill="#376FFF"/>
</svg>
