<svg width="24" height="24" viewBox="0 0 24 24" fill="none" xmlns="http://www.w3.org/2000/svg">
<path fill-rule="evenodd" clip-rule="evenodd" d="M14.9619 13.4108C14.0346 13.4705 13.0474 13.5001 12 13.5001C10.9526 13.5001 9.96537 13.4705 9.03807 13.4108C9.30546 18.3646 10.9222 22.1501 12 22.1501C13.0778 22.1501 14.6945 18.3646 14.9619 13.4108ZM7.02578 13.2221C7.17774 16.7931 7.98744 19.755 9.08516 21.6643C4.98414 20.4041 2 16.5541 2 12.0001C2 11.9703 2.00013 11.9405 2.00038 11.9108C3.32881 12.5315 5.0026 12.9661 7.02578 13.2221ZM2.24187 9.78218C3.36918 10.4445 4.96084 10.9217 7.01092 11.2026C7.11444 7.44193 7.94424 4.32031 9.08516 2.33589C5.67031 3.3852 3.02985 6.23025 2.24187 9.78218ZM9.0068 11.404C9.12879 6.05669 10.8638 1.8501 12 1.8501C13.1362 1.8501 14.8712 6.05669 14.9932 11.404C14.0675 11.4678 13.0697 11.5001 12 11.5001C10.9303 11.5001 9.93248 11.4678 9.0068 11.404ZM16.9742 13.2221C18.9974 12.9661 20.6712 12.5315 21.9996 11.9108C21.9999 11.9405 22 11.9703 22 12.0001C22 16.5541 19.0159 20.4041 14.9148 21.6643C16.0126 19.755 16.8223 16.7931 16.9742 13.2221ZM21.7581 9.78218C20.6308 10.4445 19.0392 10.9217 16.9891 11.2026C16.8856 7.44193 16.0558 4.32031 14.9148 2.33589C18.3297 3.3852 20.9701 6.23025 21.7581 9.78218Z" fill="#376FFF"/>
</svg>
