<svg width="24" height="24" viewBox="0 0 24 24" fill="none" xmlns="http://www.w3.org/2000/svg">
<path fill-rule="evenodd" clip-rule="evenodd" d="M7.7776 14.1009C7.7193 14.1003 7.66052 14.1 7.60127 14.1C3.9545 14.1 2.08883 15.2132 2.00428 17.4396C1.99978 17.5581 2.03553 17.6747 2.10575 17.7703C2.42558 18.2057 3.09236 18.5255 4.10607 18.7297C4.41899 16.9262 5.42214 15.458 7.06917 14.4752C7.29571 14.34 7.53203 14.2154 7.7776 14.1009ZM11.9768 15.092C12.7527 15.6441 13.1598 16.4267 13.1983 17.4397C13.2028 17.5582 13.167 17.6748 13.0967 17.7704C12.4945 18.5901 10.6627 19 7.60127 19C7.06153 19 6.56 18.9873 6.09669 18.9618C6.53874 16.7231 8.49876 15.4332 11.9768 15.092ZM7.71405 5.00142C7.67676 5.00047 7.63917 5 7.60127 5C5.61305 5 4.45127 6.307 4.45127 8.54375C4.45127 10.7805 5.80127 12.7 7.60127 12.7C8.1311 12.7 8.62194 12.5337 9.05083 12.2419C8.04794 10.803 7.50015 8.96473 7.50015 7.0625C7.50015 6.3524 7.5683 5.65988 7.71405 5.00142ZM9.62315 5.64629C9.54178 6.08361 9.50015 6.5564 9.50015 7.0625C9.50015 8.35229 9.81437 9.56824 10.3583 10.5598C10.6101 9.95708 10.7513 9.267 10.7513 8.54375C10.7513 7.23376 10.3528 6.24268 9.62315 5.64629Z" fill="#376FFF"/>
<path d="M14.0001 13C11.4287 13 9.50015 10.2579 9.50015 7.0625C9.50015 3.86714 11.1598 2 14.0001 2C16.8405 2 18.5001 3.86714 18.5001 7.0625C18.5001 10.2579 16.5716 13 14.0001 13ZM14.0001 22C9.62651 22 7.0096 21.4144 6.14939 20.2433C6.04908 20.1067 5.99802 19.9402 6.00445 19.7708C6.12523 16.5903 8.79046 15 14.0001 15C19.2099 15 21.8751 16.5903 21.9959 19.771C22.0023 19.9403 21.9511 20.1069 21.8508 20.2435C20.9904 21.4145 18.3736 22 14.0001 22Z" fill="#376FFF"/>
</svg>
