<svg width="24" height="24" viewBox="0 0 24 24" fill="none" xmlns="http://www.w3.org/2000/svg">
<path fill-rule="evenodd" clip-rule="evenodd" d="M8 3H6.20486C5.09046 3 4.68635 3.11603 4.27894 3.33392C3.87154 3.5518 3.5518 3.87154 3.33392 4.27894C3.11603 4.68635 3 5.09046 3 6.20486V7V9V11V13V15V17V17.7951C3 18.9095 3.11603 19.3137 3.33392 19.7211C3.5518 20.1285 3.87154 20.4482 4.27894 20.6661C4.68635 20.884 5.09046 21 6.20486 21H8H16H17.7951C18.9095 21 19.3137 20.884 19.7211 20.6661C20.1285 20.4482 20.4482 20.1285 20.6661 19.7211C20.884 19.3137 21 18.9095 21 17.7951V17V15V13V11V9V7V6.20486C21 5.09046 20.884 4.68635 20.6661 4.27894C20.4482 3.87154 20.1285 3.5518 19.7211 3.33392C19.3137 3.11603 18.9095 3 17.7951 3H16H8ZM8 5H6.20486C5.77844 5 5.51125 5.01899 5.35599 5.04897C5.29517 5.06072 5.28173 5.06567 5.22214 5.09754C5.16327 5.12903 5.12903 5.16327 5.09754 5.22214C5.06567 5.28173 5.06072 5.29517 5.04897 5.35599C5.01899 5.51125 5 5.77844 5 6.20486V7H8V5ZM8 9H5V11H8V9ZM16 11V9H19V11H16ZM8 13H5V15H8V13ZM16 15V13H19V15H16ZM8 17H5V17.7951C5 18.2216 5.01899 18.4887 5.04897 18.644C5.06072 18.7048 5.06567 18.7183 5.09754 18.7779C5.12903 18.8367 5.16327 18.871 5.22214 18.9025C5.28173 18.9343 5.29517 18.9393 5.35599 18.951C5.51125 18.981 5.77844 19 6.20486 19H8V17ZM16 19V17H19V17.7951C19 18.2216 18.981 18.4887 18.951 18.644C18.9393 18.7048 18.9343 18.7183 18.9025 18.7779C18.871 18.8367 18.8367 18.871 18.7779 18.9025C18.7183 18.9343 18.7048 18.9393 18.644 18.951C18.4887 18.981 18.2216 19 17.7951 19H16ZM16 7V5H17.7951C18.2216 5 18.4887 5.01899 18.644 5.04897C18.7048 5.06072 18.7183 5.06567 18.7779 5.09754C18.8367 5.12903 18.871 5.16327 18.9025 5.22214C18.9343 5.28173 18.9393 5.29517 18.951 5.35599C18.981 5.51125 19 5.77844 19 6.20486V7H16Z" fill="#376FFF"/>
</svg>
