<svg width="24" height="24" viewBox="0 0 24 24" fill="none" xmlns="http://www.w3.org/2000/svg">
<path fill-rule="evenodd" clip-rule="evenodd" d="M12.4998 5.93699C13.3624 5.71497 13.9998 4.93192 13.9998 4C13.9998 2.89543 13.1044 2 11.9998 2C10.8953 2 9.99983 2.89543 9.99983 4C9.99983 4.93192 10.6372 5.71497 11.4998 5.93699V10.063C11.1424 10.155 10.8236 10.3433 10.5728 10.5987L6.99928 8.53548C7.23831 7.67743 6.87886 6.73391 6.0718 6.26795C5.11521 5.71566 3.89203 6.04341 3.33975 7C2.78746 7.95658 3.11521 9.17977 4.0718 9.73205C4.87886 10.198 5.8757 10.0375 6.49928 9.40151L10.0723 11.4644C10.0251 11.6349 9.99983 11.8145 9.99983 12C9.99983 12.1855 10.0251 12.3651 10.0723 12.5355L6.49911 14.5985C5.87552 13.9625 4.87869 13.802 4.07162 14.2679C3.11504 14.8202 2.78729 16.0434 3.33957 17C3.89186 17.9566 5.11504 18.2843 6.07162 17.732C6.87869 17.2661 7.23814 16.3226 6.99911 15.4645L10.5728 13.4013C10.8236 13.6566 11.1424 13.845 11.4998 13.937V18.063C10.6372 18.285 9.99983 19.0681 9.99983 20C9.99983 21.1046 10.8953 22 11.9998 22C13.1044 22 13.9998 21.1046 13.9998 20C13.9998 19.0681 13.3624 18.285 12.4998 18.063V13.937C12.8573 13.845 13.1761 13.6566 13.4269 13.4012L17.0007 15.4645C16.7617 16.3226 17.1211 17.2661 17.9282 17.7321C18.8848 18.2843 20.108 17.9566 20.6603 17C21.2125 16.0434 20.8848 14.8202 19.9282 14.2679C19.1211 13.802 18.1243 13.9625 17.5007 14.5985L13.9274 12.5354C13.9746 12.365 13.9998 12.1854 13.9998 12C13.9998 11.8145 13.9746 11.6349 13.9273 11.4645L17.5005 9.40151C18.1241 10.0375 19.121 10.198 19.928 9.73205C20.8846 9.17977 21.2124 7.95658 20.6601 7C20.1078 6.04341 18.8846 5.71566 17.928 6.26795C17.121 6.73391 16.7615 7.67743 17.0005 8.53548L13.4269 10.5987C13.1761 10.3434 12.8573 10.155 12.4998 10.063V5.93699Z" fill="#376FFF"/>
</svg>
