<svg width="24" height="24" viewBox="0 0 24 24" fill="none" xmlns="http://www.w3.org/2000/svg">
<path fill-rule="evenodd" clip-rule="evenodd" d="M11 2C11 1.44772 11.4477 1 12 1C12.5523 1 13 1.44772 13 2V4.06189C16.6187 4.51314 19.4869 7.38128 19.9381 11H22C22.5523 11 23 11.4477 23 12C23 12.5523 22.5523 13 22 13H19.9381C19.4869 16.6187 16.6187 19.4869 13 19.9381V22C13 22.5523 12.5523 23 12 23C11.4477 23 11 22.5523 11 22V19.9381C7.38128 19.4869 4.51314 16.6187 4.06189 13H2C1.44772 13 1 12.5523 1 12C1 11.4477 1.44772 11 2 11H4.06189C4.51314 7.38128 7.38128 4.51314 11 4.06189V2ZM15 12C15 13.6569 13.6569 15 12 15C10.3431 15 9 13.6569 9 12C9 10.3431 10.3431 9 12 9C13.6569 9 15 10.3431 15 12Z" fill="#376FFF"/>
</svg>
